# xmcd
#
# Track frame offsets:
#	150
#	10582
#	19295
#	29793
#	40667
#	50481
#	61712
#	71924
#	84500
#	98561
#	109009
#	120522
#	133220
#	143247
#	153667
#	165524
#	175129
#	188575
#	205749
#	221481
#	231755
#	263924
#	278365
#	291832
#	305427
#	324975
#	343221
#
# Disc length: 4793 seconds
#
# Revision: 0
# Processed by: cddbd v1.4PL0 Copyright (c) Steve Scherf et al.
# Submitted via: EasyCDDAExtractor 4.6.0.1
#
DISCID=7e12b71b
DTITLE=The Beatles - 1
DYEAR=1900
DGENRE=
TTITLE0=Love Me Do
TTITLE1=From Me To You
TTITLE2=She Loves You
TTITLE3=I Want To Hold Your Hand
TTITLE4=Can't Buy Me Love
TTITLE5=A Hard Day's Night
TTITLE6=I Feel Fine
TTITLE7=Eight Days A Week
TTITLE8=Ticket To Ride
TTITLE9=Help!
TTITLE10=Yesterday
TTITLE11=Day Tripper
TTITLE12=We Can Work It Out
TTITLE13=Paperback Writer
TTITLE14=Yellow Submarine
TTITLE15=Eleanor Rigby
TTITLE16=Penny Lane
TTITLE17=All You Need Is Love
TTITLE18=Hello Goodbye
TTITLE19=Lady Madonna
TTITLE20=Hey Jude
TTITLE21=Get Back
TTITLE22=Get Back
TTITLE23=Something
TTITLE24=Come Together
TTITLE25=Let It Be
TTITLE26=The Long And Winding Road
EXTD=
EXTT0=
EXTT1=
EXTT2=
EXTT3=
EXTT4=
EXTT5=
EXTT6=
EXTT7=
EXTT8=
EXTT9=
EXTT10=
EXTT11=
EXTT12=
EXTT13=
EXTT14=
EXTT15=
EXTT16=
EXTT17=
EXTT18=
EXTT19=
EXTT20=
EXTT21=
EXTT22=
EXTT23=
EXTT24=
EXTT25=
EXTT26=
PLAYORDER=
